{
  "accessors": [
    {
      "bufferView": 3,
      "componentType": 5126,
      "count": 3176,
      "max": [
        0.7860950827598572,
        2.7644479274749756,
        0.2856751084327698
      ],
      "min": [
        -0.7860957980155945,
        -0.010894550010561943,
        -0.22701729834079742
      ],
      "type": "VEC3"
    },
    {
      "bufferView": 3,
      "byteOffset": 38112,
      "componentType": 5126,
      "count": 3176,
      "max": [
        0.9998582601547241,
        0.9977144598960876,
        0.9999589323997498
      ],
      "min": [
        -0.9998583793640137,
        -0.9995073080062866,
        -0.9999061226844788
      ],
      "type": "VEC3"
    },
    {
      "bufferView": 2,
      "componentType": 5126,
      "count": 3176,
      "max": [
        1.9667999744415283,
        0.9951000213623047
      ],
      "min": [
        0.015799999237060547,
        0.011699974536895752
      ],
      "type": "VEC2"
    },
    {
      "bufferView": 1,
      "componentType": 5125,
      "count": 14580,
      "type": "SCALAR"
    },
    {
      "bufferView": 3,
      "byteOffset": 76224,
      "componentType": 5126,
      "count": 22,
      "max": [
        0.07554704695940018,
        2.582321882247925,
        0.1852668970823288
      ],
      "min": [
        -0.07554454356431961,
        2.565509080886841,
        0.16575780510902405
      ],
      "type": "VEC3"
    },
    {
      "bufferView": 3,
      "byteOffset": 76488,
      "componentType": 5126,
      "count": 22,
      "max": [
        0.8555734157562256,
        0.04884986951947212,
        0.9528148770332336
      ],
      "min": [
        -0.8555412888526917,
        -0.6726518869400024,
        0.515379011631012
      ],
      "type": "VEC3"
    },
    {
      "bufferView": 2,
      "byteOffset": 25408,
      "componentType": 5126,
      "count": 22,
      "max": [
        0.9900000095367432,
        0.9810000061988831
      ],
      "min": [
        0.9273999929428101,
        0.9639999866485596
      ],
      "type": "VEC2"
    },
    {
      "bufferView": 1,
      "byteOffset": 58320,
      "componentType": 5125,
      "count": 54,
      "type": "SCALAR"
    },
    {
      "bufferView": 3,
      "byteOffset": 76752,
      "componentType": 5126,
      "count": 22,
      "max": [
        0.07554704695940018,
        2.582321882247925,
        0.1852668970823288
      ],
      "min": [
        -0.07554454356431961,
        2.565509080886841,
        0.16575780510902405
      ],
      "type": "VEC3"
    },
    {
      "bufferView": 3,
      "byteOffset": 77016,
      "componentType": 5126,
      "count": 22,
      "max": [
        0.8555734157562256,
        0.04884986951947212,
        0.9528148770332336
      ],
      "min": [
        -0.8555412888526917,
        -0.6726518869400024,
        0.515379011631012
      ],
      "type": "VEC3"
    },
    {
      "bufferView": 2,
      "byteOffset": 25584,
      "componentType": 5126,
      "count": 22,
      "max": [
        0.9900000095367432,
        0.9810000061988831
      ],
      "min": [
        0.9273999929428101,
        0.9639999866485596
      ],
      "type": "VEC2"
    },
    {
      "bufferView": 1,
      "byteOffset": 58536,
      "componentType": 5125,
      "count": 54,
      "type": "SCALAR"
    },
    {
      "bufferView": 3,
      "byteOffset": 77280,
      "componentType": 5126,
      "count": 3151,
      "max": [
        0.7860950827598572,
        2.7644479274749756,
        0.2856751084327698
      ],
      "min": [
        -0.7860957980155945,
        -0.010894550010561943,
        -0.22701729834079742
      ],
      "type": "VEC3"
    },
    {
      "bufferView": 3,
      "byteOffset": 115092,
      "componentType": 5126,
      "count": 3151,
      "max": [
        0.9998582601547241,
        0.9977144598960876,
        0.9999589323997498
      ],
      "min": [
        -0.9998583793640137,
        -0.9995073080062866,
        -0.9999061226844788
      ],
      "type": "VEC3"
    },
    {
      "bufferView": 2,
      "byteOffset": 25760,
      "componentType": 5126,
      "count": 3151,
      "max": [
        0.9667999744415283,
        0.9951000213623047
      ],
      "min": [
        0.015799999237060547,
        0.011699974536895752
      ],
      "type": "VEC2"
    },
    {
      "bufferView": 1,
      "byteOffset": 58752,
      "componentType": 5125,
      "count": 14580,
      "type": "SCALAR"
    },
    {
      "bufferView": 5,
      "componentType": 5126,
      "count": 79,
      "max": [
        56.207298278808594,
        0.9396913051605225,
        0.5613219141960144,
        0.0,
        0.5613217949867249,
        56.207298278808594,
        0.8830239176750183,
        0.0,
        0.9396911263465881,
        0.756850004196167,
        56.207298278808594,
        0.0,
        1.3512464761734009,
        1.8043479919433594,
        0.8022202849388123,
        1.0
      ],
      "min": [
        0.11697494238615036,
        -0.9396935701370239,
        -0.5613250732421875,
        0.0,
        -0.5613250732421875,
        -0.9944143295288086,
        -0.5543777942657471,
        0.0,
        -0.939693808555603,
        -0.31432485580444336,
        -0.994414210319519,
        0.0,
        -1.351247787475586,
        -2.3370983600616455,
        -2.0942556858062744,
        1.0
      ],
      "type": "MAT4"
    },
    {
      "bufferView": 0,
      "componentType": 5123,
      "count": 3176,
      "type": "VEC4"
    },
    {
      "bufferView": 4,
      "componentType": 5126,
      "count": 3176,
      "max": [
        1.0,
        0.5,
        0.30000171065330505,
        0.0
      ],
      "min": [
        0.35000166296958923,
        0.0,
        0.0,
        0.0
      ],
      "type": "VEC4"
    },
    {
      "bufferView": 0,
      "byteOffset": 25408,
      "componentType": 5123,
      "count": 22,
      "type": "VEC4"
    },
    {
      "bufferView": 4,
      "byteOffset": 50816,
      "componentType": 5126,
      "count": 22,
      "max": [
        1.0,
        0.0,
        0.0,
        0.0
      ],
      "min": [
        1.0,
        0.0,
        0.0,
        0.0
      ],
      "type": "VEC4"
    },
    {
      "bufferView": 0,
      "byteOffset": 25584,
      "componentType": 5123,
      "count": 22,
      "type": "VEC4"
    },
    {
      "bufferView": 4,
      "byteOffset": 51168,
      "componentType": 5126,
      "count": 22,
      "max": [
        1.0,
        0.0,
        0.0,
        0.0
      ],
      "min": [
        1.0,
        0.0,
        0.0,
        0.0
      ],
      "type": "VEC4"
    },
    {
      "bufferView": 0,
      "byteOffset": 25760,
      "componentType": 5123,
      "count": 3151,
      "type": "VEC4"
    },
    {
      "bufferView": 4,
      "byteOffset": 51520,
      "componentType": 5126,
      "count": 3151,
      "max": [
        1.0,
        0.5,
        0.30000171065330505,
        0.0
      ],
      "min": [
        0.35000166296958923,
        0.0,
        0.0,
        0.0
      ],
      "type": "VEC4"
    }
  ],
  "asset": {
    "extras": {
      "author": "Lil_CJ (https://sketchfab.com/lil_cj_5888)",
      "license": "CC-BY-4.0 (http://creativecommons.org/licenses/by/4.0/)",
      "source": "https://sketchfab.com/3d-models/black-panther-e73e355bdafa4fbeae0e42fca8c34bcc",
      "title": "Black Panther"
    },
    "generator": "Sketchfab-12.65.0",
    "version": "2.0"
  },
  "bufferViews": [
    {
      "buffer": 0,
      "byteLength": 50968,
      "byteStride": 8,
      "name": "shortBufferViews",
      "target": 34962
    },
    {
      "buffer": 0,
      "byteLength": 117072,
      "byteOffset": 50968,
      "name": "floatBufferViews",
      "target": 34963
    },
    {
      "buffer": 0,
      "byteLength": 50968,
      "byteOffset": 168040,
      "byteStride": 8,
      "name": "floatBufferViews",
      "target": 34962
    },
    {
      "buffer": 0,
      "byteLength": 152904,
      "byteOffset": 219008,
      "byteStride": 12,
      "name": "floatBufferViews",
      "target": 34962
    },
    {
      "buffer": 0,
      "byteLength": 101936,
      "byteOffset": 371912,
      "byteStride": 16,
      "name": "floatBufferViews",
      "target": 34962
    },
    {
      "buffer": 0,
      "byteLength": 5056,
      "byteOffset": 473848,
      "name": "floatBufferViews"
    }
  ],
  "buffers": [
    {
      "byteLength": 478904,
      "uri": "scene.bin"
    }
  ],
  "images": [
    {
      "uri": "textures/25_body_0.1_0_0.002_baseColor.png"
    }
  ],
  "materials": [
    {
      "doubleSided": true,
      "name": "27_grayenv_1_0_0.006",
      "pbrMetallicRoughness": {
        "baseColorFactor": [
          0.8,
          0.8,
          0.8,
          1.0
        ],
        "metallicFactor": 0.0,
        "roughnessFactor": 0.6
      }
    },
    {
      "doubleSided": true,
      "name": "27_eyesenv_1_0_0.012",
      "pbrMetallicRoughness": {
        "baseColorFactor": [
          0.8,
          0.8,
          0.8,
          1.0
        ],
        "metallicFactor": 0.0,
        "roughnessFactor": 0.6
      }
    },
    {
      "doubleSided": true,
      "name": "25_eyes_0.1_0_0.012",
      "pbrMetallicRoughness": {
        "baseColorFactor": [
          0.8,
          0.8,
          0.8,
          1.0
        ],
        "metallicFactor": 0.0,
        "roughnessFactor": 0.6
      }
    },
    {
      "doubleSided": true,
      "name": "25_body_0.1_0_0.002",
      "pbrMetallicRoughness": {
        "baseColorFactor": [
          0.09927591463414634,
          0.09927591463414634,
          0.09927591463414634,
          1.0
        ],
        "baseColorTexture": {
          "index": 0
        },
        "metallicFactor": 0.0,
        "roughnessFactor": 0.6
      }
    }
  ],
  "meshes": [
    {
      "name": "27_grayenv_1_0_0.006_27_grayenv_1_0_0.006_0",
      "primitives": [
        {
          "attributes": {
            "JOINTS_0": 17,
            "NORMAL": 1,
            "POSITION": 0,
            "TEXCOORD_0": 2,
            "WEIGHTS_0": 18
          },
          "indices": 3,
          "material": 0,
          "mode": 4
        }
      ]
    },
    {
      "name": "27_eyesenv_1_0_0.005_27_eyesenv_1_0_0.012_0",
      "primitives": [
        {
          "attributes": {
            "JOINTS_0": 19,
            "NORMAL": 5,
            "POSITION": 4,
            "TEXCOORD_0": 6,
            "WEIGHTS_0": 20
          },
          "indices": 7,
          "material": 1,
          "mode": 4
        }
      ]
    },
    {
      "name": "25_eyes_0.1_0_0.005_25_eyes_0.1_0_0.012_0",
      "primitives": [
        {
          "attributes": {
            "JOINTS_0": 21,
            "NORMAL": 9,
            "POSITION": 8,
            "TEXCOORD_0": 10,
            "WEIGHTS_0": 22
          },
          "indices": 11,
          "material": 2,
          "mode": 4
        }
      ]
    },
    {
      "name": "25_body_0.1_0_0.002_25_body_0.1_0_0.002_0",
      "primitives": [
        {
          "attributes": {
            "JOINTS_0": 23,
            "NORMAL": 13,
            "POSITION": 12,
            "TEXCOORD_0": 14,
            "WEIGHTS_0": 24
          },
          "indices": 15,
          "material": 3,
          "mode": 4
        }
      ]
    }
  ],
  "nodes": [
    {
      "children": [
        1
      ],
      "matrix": [
        1.4741147756576538,
        0.0,
        0.0,
        0.0,
        0.0,
        3.273192329750549e-16,
        -1.4741147756576538,
        0.0,
        0.0,
        1.4741147756576538,
        3.273192329750549e-16,
        0.0,
        0.0,
        0.0,
        0.0,
        1.0
      ],
      "name": "Sketchfab_model"
    },
    {
      "children": [
        2
      ],
      "matrix": [
        1.0,
        0.0,
        0.0,
        0.0,
        0.0,
        0.0,
        1.0,
        0.0,
        0.0,
        -1.0,
        0.0,
        0.0,
        0.0,
        0.0,
        0.0,
        1.0
      ],
      "name": "0.fbx"
    },
    {
      "children": [
        3
      ],
      "name": "RootNode"
    },
    {
      "children": [
        4
      ],
      "matrix": [
        56.207298278808594,
        0.0,
        0.0,
        0.0,
        0.0,
        -9.157331222362813e-06,
        -56.20729827880785,
        0.0,
        0.0,
        56.20729827880785,
        -9.157331222362813e-06,
        0.0,
        0.0,
        0.0,
        0.0,
        1.0
      ],
      "name": "Armature"
    },
    {
      "children": [
        5,
        85,
        87,
        89,
        91,
        84,
        86,
        88,
        90
      ],
      "name": "Object_4"
    },
    {
      "children": [
        6
      ],
      "name": "_rootJoint"
    },
    {
      "children": [
        7
      ],
      "name": "root ground_01",
      "rotation": [
        -5.785154070170739e-31,
        1.3234889800848443e-23,
        1.0,
        -4.371138828673793e-08
      ]
    },
    {
      "children": [
        8
      ],
      "name": "unusedbip001_02",
      "rotation": [
        5.5154963263248646e-08,
        0.5963126420974731,
        0.8027522563934326,
        5.307776618224125e-08
      ],
      "scale": [
        1.0,
        0.9999998807907104,
        0.9999999403953552
      ],
      "translation": [
        1.2407709188295415e-24,
        0.04102015495300293,
        1.5214170217514038
      ]
    },
    {
      "children": [
        9,
        74,
        79
      ],
      "name": "root hips_03",
      "rotation": [
        0.14555160701274872,
        -1.6776375559857115e-06,
        -2.323006128790439e-06,
        0.9893506765365601
      ],
      "scale": [
        1.0,
        1.0,
        0.9999998807907104
      ],
      "translation": [
        -2.000002012891855e-07,
        -1.5459954738616943e-07,
        -7.450579175838357e-08
      ]
    },
    {
      "children": [
        10
      ],
      "name": "spine lower_04",
      "rotation": [
        0.0002066359156742692,
        1.2346164339760435e-06,
        1.2348311884124996e-06,
        1.0
      ],
      "scale": [
        1.0,
        0.9999999403953552,
        1.0
      ],
      "translation": [
        -4.0001054912863765e-07,
        0.23868799209594727,
        -4.913906082038011e-07
      ]
    },
    {
      "children": [
        11,
        14,
        44
      ],
      "name": "spine upper_05",
      "rotation": [
        -0.0575585663318634,
        1.8400062629098102e-07,
        2.7687568149303843e-07,
        0.9983421564102173
      ],
      "translation": [
        -1.3500311979441904e-13,
        0.2572011947631836,
        -9.90801996003654e-10
      ]
    },
    {
      "children": [
        12
      ],
      "name": "head neck lower_06",
      "rotation": [
        0.22333326935768127,
        4.892901301900565e-07,
        2.7675932301463035e-07,
        0.9747421741485596
      ],
      "scale": [
        1.0,
        1.0,
        0.9999999403953552
      ],
      "translation": [
        1.9506862258822366e-07,
        0.36476871371269226,
        -0.021015334874391556
      ]
    },
    {
      "children": [
        13
      ],
      "name": "head neck upper_07",
      "rotation": [
        3.725290298461914e-08,
        2.4868995751603507e-14,
        4.796163466380676e-14,
        1.0
      ],
      "translation": [
        -1.554312446233456e-15,
        0.09922280162572861,
        2.7007729386241408e-08
      ]
    },
    {
      "name": "head neck upper_end_077",
      "rotation": [
        -5.551115123125783e-17,
        5.293955920339377e-23,
        -2.6469779601696886e-23,
        1.0
      ],
      "translation": [
        0.0,
        0.09922271221876144,
        1.1102230246251565e-16
      ]
    },
    {
      "children": [
        15,
        42
      ],
      "name": "arm left shoulder 1_08",
      "rotation": [
        0.6508822441101074,
        0.44191330671310425,
        0.4962072968482971,
        -0.3672100901603699
      ],
      "scale": [
        1.000000238418579,
        1.000000238418579,
        1.0
      ],
      "translation": [
        0.0839928463101387,
        0.32986822724342346,
        0.010507400147616863
      ]
    },
    {
      "children": [
        16,
        40
      ],
      "name": "arm left shoulder 2_09",
      "rotation": [
        -0.2034161537885666,
        -0.2848803997039795,
        0.2740519940853119,
        0.8957458138465881
      ],
      "scale": [
        0.9999998807907104,
        1.0000001192092896,
        0.9999999403953552
      ],
      "translation": [
        -2.514570951461792e-08,
        0.17198535799980164,
        -3.795139491558075e-07
      ]
    },
    {
      "children": [
        17,
        19
      ],
      "name": "arm left elbow_010",
      "rotation": [
        -0.2196485847234726,
        -0.01665755920112133,
        -0.10962937027215958,
        0.9692566394805908
      ],
      "scale": [
        0.9999999403953552,
        1.0,
        1.0
      ],
      "translation": [
        -6.332993507385254e-08,
        0.5313812494277954,
        5.21540641784668e-08
      ]
    },
    {
      "children": [
        18
      ],
      "name": "arm left elbow adj_011",
      "rotation": [
        0.8717818856239319,
        -2.485859624812292e-07,
        0.48989424109458923,
        -1.897692669672324e-07
      ],
      "translation": [
        -2.4959444999694824e-07,
        -2.849847078323364e-07,
        -1.5809200704097748e-07
      ]
    },
    {
      "name": "arm left elbow adj_end_064",
      "rotation": [
        2.7755575615628914e-17,
        -5.551115123125783e-17,
        1.5407439555097887e-33,
        1.0
      ],
      "translation": [
        0.0,
        0.39689022302627563,
        1.1102230246251565e-16
      ]
    },
    {
      "children": [
        20,
        24,
        28,
        32,
        36
      ],
      "name": "arm left wrist_012",
      "rotation": [
        -0.05125722289085388,
        -0.12808804214000702,
        0.07731914520263672,
        0.9874147772789001
      ],
      "scale": [
        0.9999997615814209,
        1.0,
        1.0
      ],
      "translation": [
        -9.872019290924072e-08,
        0.396889865398407,
        -3.67872416973114e-08
      ]
    },
    {
      "children": [
        21
      ],
      "name": "arm left finger 1a_013",
      "rotation": [
        -0.08953354507684708,
        -0.17711086571216583,
        0.1007690280675888,
        0.9749160408973694
      ],
      "scale": [
        0.9999999403953552,
        1.0,
        0.9999998807907104
      ],
      "translation": [
        -0.02837890014052391,
        0.03215286135673523,
        -0.08050636947154999
      ]
    },
    {
      "children": [
        22
      ],
      "name": "arm left finger 1b_014",
      "rotation": [
        0.09699609130620956,
        0.01518646813929081,
        -0.0029742810875177383,
        0.9951644539833069
      ],
      "scale": [
        0.9999998807907104,
        0.9999999403953552,
        1.0
      ],
      "translation": [
        4.377216100692749e-08,
        0.05598296597599983,
        -2.9802322387695313e-08
      ]
    },
    {
      "children": [
        23
      ],
      "name": "arm left finger 1c_015",
      "rotation": [
        6.752088665962219e-08,
        -2.0773313624822265e-16,
        1.5832483768463135e-08,
        1.0
      ],
      "scale": [
        1.0,
        1.0,
        1.0000001192092896
      ],
      "translation": [
        1.5832483768463135e-08,
        0.05375617370009422,
        3.725290298461914e-08
      ]
    },
    {
      "name": "arm left finger 1c_end_063",
      "rotation": [
        -2.7755575615628914e-17,
        6.938893903907228e-18,
        1.925929944387236e-34,
        1.0
      ],
      "translation": [
        -1.1102230246251565e-16,
        0.05375611409544945,
        0.0
      ]
    },
    {
      "children": [
        25
      ],
      "name": "arm left finger 2a_016",
      "rotation": [
        0.021375730633735657,
        -0.1169409304857254,
        0.09303216636180878,
        0.9885408282279968
      ],
      "scale": [
        0.9999999403953552,
        1.0,
        0.9999998807907104
      ],
      "translation": [
        0.019352223724126816,
        0.12205082178115845,
        -0.04006795585155487
      ]
    },
    {
      "children": [
        26
      ],
      "name": "arm left finger 2b_017",
      "rotation": [
        0.03088679537177086,
        -0.17856059968471527,
        0.14181092381477356,
        0.9731658697128296
      ],
      "scale": [
        1.0,
        1.0,
        1.0000001192092896
      ],
      "translation": [
        -2.421438694000244e-08,
        0.0796702578663826,
        1.4901161193847656e-08
      ]
    },
    {
      "children": [
        27
      ],
      "name": "arm left finger 2c_018",
      "rotation": [
        3.3993273973464966e-08,
        -2.60770320892334e-08,
        3.259629011154175e-08,
        1.0
      ],
      "translation": [
        -9.313225746154785e-09,
        0.04584033787250519,
        1.1102230246251565e-16
      ]
    },
    {
      "name": "arm left finger 2c_end_072",
      "rotation": [
        4.81482486096809e-34,
        1.3877787807814457e-17,
        -3.469446951953614e-17,
        1.0
      ],
      "translation": [
        5.551115123125783e-17,
        0.04584044590592384,
        0.0
      ]
    },
    {
      "children": [
        29
      ],
      "name": "arm left finger 3a_019",
      "rotation": [
        0.04129616171121597,
        -0.15483291447162628,
        0.1274546980857849,
        0.9788139462471008
      ],
      "translation": [
        0.015779908746480942,
        0.11863021552562714,
        0.00484631210565567
      ]
    },
    {
      "children": [
        30
      ],
      "name": "arm left finger 3b_020",
      "rotation": [
        0.0285551305860281,
        -0.13781820237636566,
        0.11284398287534714,
        0.9835939407348633
      ],
      "scale": [
        0.9999998807907104,
        0.9999999403953552,
        0.9999998807907104
      ],
      "translation": [
        3.818422555923462e-08,
        0.0854695737361908,
        2.9802322387695313e-08
      ]
    },
    {
      "children": [
        31
      ],
      "name": "arm left finger 3c_021",
      "rotation": [
        -1.862645326866641e-08,
        -3.25962878910957e-09,
        2.6542695152897977e-08,
        1.0
      ],
      "scale": [
        1.0,
        0.9999999403953552,
        0.9999999403953552
      ],
      "translation": [
        5.587935447692871e-09,
        0.057880111038684845,
        -2.2351741790771484e-08
      ]
    },
    {
      "name": "arm left finger 3c_end_061",
      "rotation": [
        1.4444474582904269e-34,
        -2.7755575615628914e-17,
        5.204170427930421e-18,
        1.0
      ],
      "translation": [
        5.551115123125783e-17,
        0.05787994712591171,
        -5.551115123125783e-17
      ]
    },
    {
      "children": [
        33
      ],
      "name": "arm left finger 4a_022",
      "rotation": [
        0.08187147974967957,
        -0.12834978103637695,
        0.12133681774139404,
        0.9808673858642578
      ],
      "scale": [
        0.9999999403953552,
        1.0,
        0.9999998211860657
      ],
      "translation": [
        0.004275688901543617,
        0.11144670844078064,
        0.04108428210020065
      ]
    },
    {
      "children": [
        34
      ],
      "name": "arm left finger 4b_023",
      "rotation": [
        0.004652386996895075,
        -0.13225510716438293,
        0.11631051450967789,
        0.9843570590019226
      ],
      "scale": [
        1.0,
        1.0000001192092896,
        1.0000001192092896
      ],
      "translation": [
        6.146728992462158e-08,
        0.07950950413942337,
        -1.1175870895385742e-08
      ]
    },
    {
      "children": [
        35
      ],
      "name": "arm left finger 4c_024",
      "rotation": [
        5.1222745156565e-08,
        -6.51925802230835e-09,
        -1.909211277961731e-08,
        1.0
      ],
      "scale": [
        1.0,
        0.9999999403953552,
        1.0
      ],
      "translation": [
        3.632158041000366e-08,
        0.048428382724523544,
        1.4901161193847656e-08
      ]
    },
    {
      "name": "arm left finger 4c_end_059",
      "rotation": [
        0.0,
        -0.0,
        -3.469446951953614e-18,
        1.0
      ],
      "translation": [
        -1.1102230246251565e-16,
        0.04842841252684593,
        5.551115123125783e-17
      ]
    },
    {
      "children": [
        37
      ],
      "name": "arm left finger 5a_025",
      "rotation": [
        0.10847139358520508,
        -0.14821653068065643,
        0.14470279216766357,
        0.9722792506217957
      ],
      "scale": [
        0.9999999403953552,
        1.0,
        0.9999999403953552
      ],
      "translation": [
        -0.011028734967112541,
        0.11125066131353378,
        0.07464392483234406
      ]
    },
    {
      "children": [
        38
      ],
      "name": "arm left finger 5b_026",
      "rotation": [
        -0.0016709888586774468,
        -0.1258840709924698,
        0.11637881398200989,
        0.98519366979599
      ],
      "scale": [
        1.0,
        1.0000001192092896,
        1.0000001192092896
      ],
      "translation": [
        -8.568167686462402e-08,
        0.06046759709715843,
        -5.587935447692871e-09
      ]
    },
    {
      "children": [
        39
      ],
      "name": "arm left finger 5c_027",
      "rotation": [
        -3.725290076417309e-09,
        -5.355105248128211e-09,
        2.398155807270541e-08,
        1.0
      ],
      "scale": [
        0.9999999403953552,
        1.0,
        0.9999999403953552
      ],
      "translation": [
        -8.149072527885437e-09,
        0.03558223694562912,
        0.0
      ]
    },
    {
      "name": "arm left finger 5c_end_069",
      "rotation": [
        1.3877787807814457e-17,
        -2.407412430484045e-34,
        -1.734723475976807e-17,
        1.0
      ],
      "translation": [
        5.551115123125783e-17,
        0.03558237850666046,
        -2.7755575615628914e-17
      ]
    },
    {
      "children": [
        41
      ],
      "name": "arm left shoulder 2 adj_028",
      "rotation": [
        0.8556681275367737,
        5.079039766542337e-08,
        0.5175251364707947,
        1.3963042988507368e-07
      ],
      "translation": [
        3.91155481338501e-08,
        7.031485438346863e-08,
        1.5273690223693848e-07
      ]
    },
    {
      "name": "arm left shoulder 2 adj_end_067",
      "rotation": [
        2.7755575615628914e-17,
        5.551115123125783e-17,
        5.551115123125783e-17,
        1.0
      ],
      "translation": [
        0.0,
        0.5313813090324402,
        0.0
      ]
    },
    {
      "children": [
        43
      ],
      "name": "arm left shoulder 1 adj_029",
      "rotation": [
        0.47085335850715637,
        0.14490625262260437,
        0.8699646592140198,
        0.021466054022312164
      ],
      "scale": [
        1.0000001192092896,
        1.0,
        1.000001072883606
      ],
      "translation": [
        0.009723389521241188,
        0.07810626924037933,
        0.026713937520980835
      ]
    },
    {
      "name": "arm left shoulder 1 adj_end_075",
      "rotation": [
        -6.486578310073432e-18,
        -5.551115123125783e-17,
        4.994106257011355e-18,
        1.0
      ],
      "translation": [
        0.0,
        0.09808915853500366,
        0.0
      ]
    },
    {
      "children": [
        45,
        72
      ],
      "name": "arm right shoulder 1_030",
      "rotation": [
        0.6508786082267761,
        -0.441914439201355,
        -0.4962103068828583,
        -0.36721110343933105
      ],
      "scale": [
        0.9999997615814209,
        0.9999998807907104,
        0.9999998211860657
      ],
      "translation": [
        -0.08399305492639542,
        0.32986798882484436,
        0.010507841594517231
      ]
    },
    {
      "children": [
        46,
        70
      ],
      "name": "arm right shoulder 2_031",
      "rotation": [
        -0.2034183293581009,
        0.2848818898200989,
        -0.274051696062088,
        0.8957449197769165
      ],
      "scale": [
        0.9999999403953552,
        0.9999999403953552,
        0.9999999403953552
      ],
      "translation": [
        5.587935447692871e-09,
        0.17198504507541656,
        -1.019798219203949e-07
      ]
    },
    {
      "children": [
        47,
        49
      ],
      "name": "arm right elbow_032",
      "rotation": [
        -0.21964871883392334,
        0.01665840484201908,
        0.10962972044944763,
        0.969256579875946
      ],
      "scale": [
        1.0,
        1.0,
        0.9999999403953552
      ],
      "translation": [
        -4.0978193283081055e-08,
        0.5313816070556641,
        -5.960464477539063e-08
      ]
    },
    {
      "children": [
        48
      ],
      "name": "arm right elbow adj_033",
      "rotation": [
        0.8717803359031677,
        1.321928948527784e-07,
        -0.4898969531059265,
        -6.107040348979353e-07
      ],
      "scale": [
        1.0,
        0.9999999403953552,
        1.0
      ],
      "translation": [
        2.942979335784912e-07,
        -1.1362135410308838e-07,
        -3.0151568353176117e-07
      ]
    },
    {
      "name": "arm right elbow adj_end_070",
      "rotation": [
        7.703719777548943e-34,
        -2.7755575615628914e-17,
        2.7755575615628914e-17,
        1.0
      ],
      "translation": [
        2.220446049250313e-16,
        0.3968900442123413,
        0.0
      ]
    },
    {
      "children": [
        50,
        54,
        58,
        62,
        66
      ],
      "name": "arm right wrist_034",
      "rotation": [
        -0.05125829577445984,
        0.1280900537967682,
        -0.07732003182172775,
        0.9874144792556763
      ],
      "scale": [
        0.9999999403953552,
        0.9999998807907104,
        0.9999999403953552
      ],
      "translation": [
        2.9802322387695313e-08,
        0.39689019322395325,
        3.480818122625351e-08
      ]
    },
    {
      "children": [
        51
      ],
      "name": "arm right finger 1a_035",
      "rotation": [
        -0.089531809091568,
        0.1771027147769928,
        -0.10076334327459335,
        0.9749181866645813
      ],
      "scale": [
        0.9999999403953552,
        1.0,
        1.0
      ],
      "translation": [
        0.028379596769809723,
        0.03215435519814491,
        -0.08050686866044998
      ]
    },
    {
      "children": [
        52
      ],
      "name": "arm right finger 1b_036",
      "rotation": [
        0.0969962403178215,
        -0.015183420851826668,
        0.0029713797848671675,
        0.9951645135879517
      ],
      "scale": [
        0.9999999403953552,
        0.9999998211860657,
        0.9999998211860657
      ],
      "translation": [
        -1.4901161193847656e-08,
        0.05598338320851326,
        2.2351741790771484e-08
      ]
    },
    {
      "children": [
        53
      ],
      "name": "arm right finger 1c_037",
      "rotation": [
        -2.561137080192566e-09,
        4.6566128730773926e-09,
        -5.168840289115906e-08,
        1.0
      ],
      "translation": [
        2.60770320892334e-08,
        0.05375710874795914,
        0.0
      ]
    },
    {
      "name": "arm right finger 1c_end_076",
      "rotation": [
        -2.7755575615628914e-17,
        4.81482486096809e-35,
        -1.734723475976807e-18,
        1.0
      ],
      "translation": [
        -1.1102230246251565e-16,
        0.05375714972615242,
        0.0
      ]
    },
    {
      "children": [
        55
      ],
      "name": "arm right finger 2a_038",
      "rotation": [
        0.021375197917222977,
        0.1169407069683075,
        -0.09303165972232819,
        0.9885408878326416
      ],
      "scale": [
        0.9999999403953552,
        1.0,
        1.0
      ],
      "translation": [
        -0.019352294504642487,
        0.12205155938863754,
        -0.0400681272149086
      ]
    },
    {
      "children": [
        56
      ],
      "name": "arm right finger 2b_039",
      "rotation": [
        0.03089057095348835,
        0.17854967713356018,
        -0.1418023705482483,
        0.9731690883636475
      ],
      "scale": [
        1.0,
        0.9999999403953552,
        0.9999999403953552
      ],
      "translation": [
        1.862645149230957e-09,
        0.07967054843902588,
        -2.9802322387695313e-08
      ]
    },
    {
      "children": [
        57
      ],
      "name": "arm right finger 2c_040",
      "rotation": [
        -1.5832485544819974e-08,
        -2.3283067918100642e-08,
        5.587936335871291e-09,
        1.0
      ],
      "scale": [
        0.9999999403953552,
        0.9999998807907104,
        0.9999999403953552
      ],
      "translation": [
        7.636845111846924e-08,
        0.045841190963983536,
        1.4901161193847656e-08
      ]
    },
    {
      "name": "arm right finger 2c_end_065",
      "rotation": [
        2.7755575615628914e-17,
        -1.3877787807814457e-17,
        3.851859888774472e-34,
        1.0
      ],
      "translation": [
        5.551115123125783e-17,
        0.04584123566746712,
        0.0
      ]
    },
    {
      "children": [
        59
      ],
      "name": "arm right finger 3a_041",
      "rotation": [
        0.04129491001367569,
        0.15483038127422333,
        -0.12745214998722076,
        0.9788147211074829
      ],
      "scale": [
        0.9999999403953552,
        1.0,
        1.0
      ],
      "translation": [
        -0.01577979326248169,
        0.11863169819116592,
        0.004846513271331787
      ]
    },
    {
      "children": [
        60
      ],
      "name": "arm right finger 3b_042",
      "rotation": [
        0.028556659817695618,
        0.13782189786434174,
        -0.1128465011715889,
        0.9835931658744812
      ],
      "scale": [
        0.9999998807907104,
        0.9999998807907104,
        0.9999999403953552
      ],
      "translation": [
        6.565824151039124e-08,
        0.08547066897153854,
        5.551115123125783e-17
      ]
    },
    {
      "children": [
        61
      ],
      "name": "arm right finger 3c_00",
      "rotation": [
        -1.955777406692505e-08,
        -2.8405338525772095e-08,
        -1.3969838619232178e-08,
        1.0
      ],
      "translation": [
        3.725290298461914e-08,
        0.05787919461727142,
        3.725290298461914e-08
      ]
    },
    {
      "name": "arm right finger 3c_end_066",
      "rotation": [
        -1.3877787807814457e-17,
        -1.2037062152420224e-34,
        8.673617379884035e-18,
        1.0
      ],
      "translation": [
        0.0,
        0.0578790009021759,
        -5.551115123125783e-17
      ]
    },
    {
      "children": [
        63
      ],
      "name": "arm right finger 4a_043",
      "rotation": [
        0.08186997473239899,
        0.12834712862968445,
        -0.12133411318063736,
        0.9808681607246399
      ],
      "scale": [
        0.9999999403953552,
        1.0,
        1.0
      ],
      "translation": [
        -0.0042755939066410065,
        0.11144808679819107,
        0.041084472090005875
      ]
    },
    {
      "children": [
        64
      ],
      "name": "arm right finger 4b_044",
      "rotation": [
        0.004654179327189922,
        0.13225659728050232,
        -0.11631131172180176,
        0.9843567609786987
      ],
      "scale": [
        1.0,
        1.0,
        0.9999999403953552
      ],
      "translation": [
        9.313225746154785e-09,
        0.07950957864522934,
        -1.1175870895385742e-08
      ]
    },
    {
      "children": [
        65
      ],
      "name": "arm right finger 4c_045",
      "rotation": [
        -8.847564458847046e-09,
        -1.7695128917694092e-08,
        -2.1420419216156006e-08,
        1.0
      ],
      "translation": [
        -6.612390279769897e-08,
        0.04842737317085266,
        0.0
      ]
    },
    {
      "name": "arm right finger 4c_end_074",
      "rotation": [
        -1.2037062152420224e-34,
        -6.938893903907228e-18,
        -1.734723475976807e-17,
        1.0
      ],
      "translation": [
        1.1102230246251565e-16,
        0.048427317291498184,
        -5.551115123125783e-17
      ]
    },
    {
      "children": [
        67
      ],
      "name": "arm right finger 5a_046",
      "rotation": [
        0.10847477614879608,
        0.14821012318134308,
        -0.14469891786575317,
        0.9722804427146912
      ],
      "translation": [
        0.011028476059436798,
        0.11125219613313675,
        0.07464375346899033
      ]
    },
    {
      "children": [
        68
      ],
      "name": "arm right finger 5b_047",
      "rotation": [
        -0.0016742923762649298,
        0.12589915096759796,
        -0.11639301478862762,
        0.9851899743080139
      ],
      "translation": [
        -5.052424967288971e-08,
        0.06046782433986664,
        -1.862645149230957e-09
      ]
    },
    {
      "children": [
        69
      ],
      "name": "arm right finger 5c_048",
      "rotation": [
        -8.847564458847046e-09,
        1.0477378964424133e-08,
        2.421438694000244e-08,
        1.0
      ],
      "translation": [
        2.7008354663848877e-08,
        0.03558270260691643,
        -1.4901161193847656e-08
      ]
    },
    {
      "name": "arm right finger 5c_end_062",
      "rotation": [
        6.938893903907228e-18,
        4.163336342344337e-17,
        -2.5153490401663703e-17,
        1.0
      ],
      "translation": [
        -5.551115123125783e-17,
        0.03558262437582016,
        -2.7755575615628914e-17
      ]
    },
    {
      "children": [
        71
      ],
      "name": "arm right shoulder 2 adj_049",
      "rotation": [
        0.85566645860672,
        -1.3186781870899722e-06,
        -0.51752769947052,
        6.665655973847606e-07
      ],
      "scale": [
        0.9999999403953552,
        0.9999999403953552,
        1.0
      ],
      "translation": [
        -7.776543498039246e-07,
        3.9534643292427063e-07,
        2.4400651454925537e-07
      ]
    },
    {
      "name": "arm right shoulder 2 adj_end_073",
      "rotation": [
        2.7755575615628914e-17,
        -5.551115123125783e-17,
        -5.551115123125783e-17,
        1.0
      ],
      "translation": [
        2.220446049250313e-16,
        0.5313810706138611,
        -1.1102230246251565e-16
      ]
    },
    {
      "children": [
        73
      ],
      "name": "arm right shoulder 1 adj_050",
      "rotation": [
        -0.47085878252983093,
        0.14492182433605194,
        0.8699596524238586,
        -0.02144555002450943
      ],
      "scale": [
        0.9999997615814209,
        0.9999995827674866,
        0.9999973773956299
      ],
      "translation": [
        -0.009722569957375526,
        0.07810644805431366,
        0.026713823899626732
      ]
    },
    {
      "name": "arm right shoulder 1 adj_end_071",
      "rotation": [
        -3.172138387467355e-17,
        2.7755575615628914e-17,
        2.3310346708438345e-17,
        1.0
      ],
      "translation": [
        0.0,
        0.09808844327926636,
        0.0
      ]
    },
    {
      "children": [
        75
      ],
      "name": "leg left thigh_051",
      "rotation": [
        0.9960212111473083,
        0.054724182933568954,
        0.05471571907401085,
        -0.04419492557644844
      ],
      "scale": [
        1.0000061988830566,
        1.0000001192092896,
        1.0000032186508179
      ],
      "translation": [
        0.1238211989402771,
        -7.4423837759241e-07,
        -4.075712922713137e-07
      ]
    },
    {
      "children": [
        76
      ],
      "name": "leg left knee_052",
      "rotation": [
        0.013033417984843254,
        -0.0044908467680215836,
        0.006400866433978081,
        0.9998844861984253
      ],
      "scale": [
        1.0,
        0.9999999403953552,
        0.9999999403953552
      ],
      "translation": [
        -1.1757947504520416e-08,
        0.6614839434623718,
        -1.0244548320770264e-08
      ]
    },
    {
      "children": [
        77
      ],
      "name": "leg left ankle_053",
      "rotation": [
        -0.42475777864456177,
        0.14991451799869537,
        -0.21259444952011108,
        0.8671274781227112
      ],
      "scale": [
        1.0000001192092896,
        1.0000001192092896,
        1.0000001192092896
      ],
      "translation": [
        4.0046870708465576e-08,
        0.7308552861213684,
        1.30385160446167e-08
      ]
    },
    {
      "children": [
        78
      ],
      "name": "leg left toes_054",
      "rotation": [
        -5.7742006731587026e-08,
        -9.015203090712021e-07,
        -4.0978196835794733e-08,
        1.0
      ],
      "scale": [
        1.0,
        0.9999998807907104,
        0.9999998807907104
      ],
      "translation": [
        2.0954757928848267e-08,
        0.22138847410678864,
        7.450580596923828e-09
      ]
    },
    {
      "name": "leg left toes_end_060",
      "rotation": [
        2.7755575615628914e-17,
        6.938893903907228e-17,
        4.163336342344337e-17,
        1.0
      ],
      "translation": [
        -5.551115123125783e-17,
        0.2213892787694931,
        0.0
      ]
    },
    {
      "children": [
        80
      ],
      "name": "leg right thigh_055",
      "rotation": [
        0.9960225224494934,
        -0.05469261482357979,
        -0.05472283065319061,
        -0.04419798031449318
      ],
      "scale": [
        1.0000026226043701,
        1.0000001192092896,
        1.000001311302185
      ],
      "translation": [
        -0.12382079660892487,
        -1.755613311615889e-06,
        9.007065955302096e-07
      ]
    },
    {
      "children": [
        81
      ],
      "name": "leg right knee_056",
      "rotation": [
        0.013033860363066196,
        0.00449117086827755,
        -0.006401345133781433,
        0.9998844861984253
      ],
      "scale": [
        1.0000001192092896,
        1.0,
        1.0000001192092896
      ],
      "translation": [
        -2.3283064365386963e-09,
        0.6614837646484375,
        -1.4901161193847656e-08
      ]
    },
    {
      "children": [
        82
      ],
      "name": "leg right ankle_057",
      "rotation": [
        -0.424758642911911,
        -0.14991207420825958,
        0.21259406208992004,
        0.8671277165412903
      ],
      "translation": [
        -1.0244548320770264e-08,
        0.7308551669120789,
        1.862645149230957e-09
      ]
    },
    {
      "children": [
        83
      ],
      "name": "leg right toes_058",
      "rotation": [
        -3.725290653733282e-08,
        2.7194619178771973e-07,
        4.0978196835794733e-08,
        1.0
      ],
      "scale": [
        1.0,
        0.9999999403953552,
        1.0
      ],
      "translation": [
        -5.122274160385132e-09,
        0.2213890105485916,
        1.1175870895385742e-08
      ]
    },
    {
      "name": "leg right toes_end_068",
      "rotation": [
        2.7755575615628914e-17,
        7.703719777548943e-34,
        2.7755575615628914e-17,
        1.0
      ],
      "translation": [
        0.0,
        0.22138935327529907,
        -8.326672684688674e-17
      ]
    },
    {
      "matrix": [
        56.207298278808594,
        0.0,
        0.0,
        0.0,
        0.0,
        3.441704396293174e-15,
        -56.207298278808594,
        0.0,
        0.0,
        56.207298278808594,
        3.441704396293174e-15,
        0.0,
        0.0,
        0.0,
        0.0,
        1.0
      ],
      "name": "Object_84"
    },
    {
      "mesh": 0,
      "name": "Object_85",
      "skin": 0
    },
    {
      "matrix": [
        56.207298278808594,
        0.0,
        0.0,
        0.0,
        0.0,
        3.441704396293174e-15,
        -56.207298278808594,
        0.0,
        0.0,
        56.207298278808594,
        3.441704396293174e-15,
        0.0,
        0.0,
        0.0,
        0.0,
        1.0
      ],
      "name": "Object_86"
    },
    {
      "mesh": 1,
      "name": "Object_87",
      "skin": 0
    },
    {
      "matrix": [
        56.207298278808594,
        0.0,
        0.0,
        0.0,
        0.0,
        3.441704396293174e-15,
        -56.207298278808594,
        0.0,
        0.0,
        56.207298278808594,
        3.441704396293174e-15,
        0.0,
        0.0,
        0.0,
        0.0,
        1.0
      ],
      "name": "Object_88"
    },
    {
      "mesh": 2,
      "name": "Object_89",
      "skin": 0
    },
    {
      "matrix": [
        56.207298278808594,
        0.0,
        0.0,
        0.0,
        0.0,
        3.441704396293174e-15,
        -56.207298278808594,
        0.0,
        0.0,
        56.207298278808594,
        3.441704396293174e-15,
        0.0,
        0.0,
        0.0,
        0.0,
        1.0
      ],
      "name": "Object_90"
    },
    {
      "mesh": 3,
      "name": "Object_91",
      "skin": 0
    }
  ],
  "samplers": [
    {
      "magFilter": 9729,
      "minFilter": 9987,
      "wrapS": 10497,
      "wrapT": 10497
    }
  ],
  "scene": 0,
  "scenes": [
    {
      "name": "Sketchfab_Scene",
      "nodes": [
        0
      ]
    }
  ],
  "skins": [
    {
      "inverseBindMatrices": 16,
      "joints": [
        5,
        6,
        7,
        8,
        9,
        10,
        11,
        12,
        13,
        14,
        15,
        16,
        17,
        18,
        19,
        20,
        21,
        22,
        23,
        24,
        25,
        26,
        27,
        28,
        29,
        30,
        31,
        32,
        33,
        34,
        35,
        36,
        37,
        38,
        39,
        40,
        41,
        42,
        43,
        44,
        45,
        46,
        47,
        48,
        49,
        50,
        51,
        52,
        53,
        54,
        55,
        56,
        57,
        58,
        59,
        60,
        61,
        62,
        63,
        64,
        65,
        66,
        67,
        68,
        69,
        70,
        71,
        72,
        73,
        74,
        75,
        76,
        77,
        78,
        79,
        80,
        81,
        82,
        83
      ],
      "skeleton": 5
    }
  ],
  "textures": [
    {
      "sampler": 0,
      "source": 0
    }
  ]
}
